<?xml version="1.0" encoding="utf-8"?>
<!-- Generator: Adobe Illustrator 16.0.0, SVG Export Plug-In . SVG Version: 6.00 Build 0)  -->
<!DOCTYPE svg PUBLIC "-//W3C//DTD SVG 1.1//EN" "http://www.w3.org/Graphics/SVG/1.1/DTD/svg11.dtd">
<svg version="1.1"
	 id="svg2" inkscape:export-ydpi="97.523811" inkscape:export-xdpi="97.523811" sodipodi:docname="junior-block.svg" inkscape:version="0.48.4 r9939" inkscape:export-filename="/home/aniruddha/Desktop/Interface/jb.png" xmlns:dc="http://purl.org/dc/elements/1.1/" xmlns:cc="http://creativecommons.org/ns#" xmlns:rdf="http://www.w3.org/1999/02/22-rdf-syntax-ns#" xmlns:svg="http://www.w3.org/2000/svg" xmlns:sodipodi="http://sodipodi.sourceforge.net/DTD/sodipodi-0.dtd" xmlns:inkscape="http://www.inkscape.org/namespaces/inkscape"
	 xmlns="http://www.w3.org/2000/svg" xmlns:xlink="http://www.w3.org/1999/xlink" x="0px" y="0px" width="945px" height="652.5px"
	 viewBox="0 0 945 652.5" enable-background="new 0 0 945 652.5" xml:space="preserve">
<filter  id="filter4343" inkscape:collect="always">
	<feBlend  in2="BackgroundImage" mode="lighten" id="feBlend4345" inkscape:collect="always"></feBlend>
</filter>
<sodipodi:namedview  id="base" inkscape:guide-bbox="true" inkscape:window-y="-744" inkscape:window-x="0" inkscape:window-height="744" inkscape:window-width="1366" inkscape:showpageshadow="false" inkscape:current-layer="layer4" inkscape:document-units="px" inkscape:pageshadow="2" inkscape:pageopacity="0" inkscape:window-maximized="1" showguides="true" inkscape:cy="293.46066" inkscape:cx="427.39323" inkscape:zoom="0.87786002" borderlayer="true" borderopacity="1" showgrid="false" bordercolor="#000000" pagecolor="#ffffff">
	<sodipodi:guide  id="guide4310" position="135.7645,1131.3708" orientation="0,1"></sodipodi:guide>
</sodipodi:namedview>
<g id="layer2" transform="translate(0,-399.86218)" inkscape:label="Bg" inkscape:groupmode="layer" sodipodi:insensitive="true">
	
		<image overflow="visible" enable-background="new    " width="1800" height="500" id="image3774" xlink:href="9C22A3D4.jpeg"  transform="matrix(0.9521 0 0 0.9521 -505.698 576.4955)">
	</image>
	
		<image overflow="visible" enable-background="new    " width="1800" height="500" id="image3968" xlink:href="9C22A3D4.jpeg"  transform="matrix(0.9521 0 0 0.9521 -505.698 104.1156)">
	</image>
</g>
<g id="layer3" inkscape:label="Cards" inkscape:groupmode="layer">
	<g id="g3212" transform="matrix(0.93219042,0,0,3.6309251,69.11724,-3141.7454)">
		<path id="rect4629" fill="#121722" d="M24.808,889.384h815.834c5.946,0,10.766,0.981,10.766,2.192v98.094
			c0,1.211-4.82,2.192-10.766,2.192H24.808c-5.945,0-10.765-0.981-10.765-2.192v-98.094
			C14.043,890.365,18.863,889.384,24.808,889.384z"/>
		<path id="rect4605" fill="#1A1F29" d="M25.274,888.352h813.469c5.946,0,10.765,0.981,10.765,2.192v98.123
			c0,1.21-4.819,2.192-10.765,2.192H25.274c-5.945,0-10.765-0.981-10.765-2.192v-98.123
			C14.508,889.333,19.328,888.352,25.274,888.352z"/>
	</g>
	<g id="g3851" transform="matrix(0.93219042,0,0,1.451923,69.11724,-798.65089)">
		<path id="rect3853" fill="#121722" d="M24.808,883.874h815.834c5.946,0,10.766,2.454,10.766,5.481v91.516
			c0,3.027-4.82,5.481-10.766,5.481H24.808c-5.945,0-10.765-2.454-10.765-5.481v-91.516
			C14.043,886.328,18.863,883.874,24.808,883.874z"/>
		<path id="rect3855" fill="#1A1F29" d="M25.274,881.464h813.469c5.946,0,10.765,2.454,10.765,5.481v91.545
			c0,3.027-4.819,5.481-10.765,5.481H25.274c-5.945,0-10.765-2.454-10.765-5.481v-91.545
			C14.508,883.918,19.328,881.464,25.274,881.464z"/>
	</g>
</g>
<g id="layer1" transform="translate(0,-399.86218)" inkscape:label="Timeline" inkscape:groupmode="layer" filter="url(#filter4343)">
</g>
<g id="layer4" inkscape:label="Events" inkscape:groupmode="layer">
	<g id="g3172" transform="matrix(1.1927584,0,0,1.1927584,55.550613,-290.44563)">
		
			<path id="path4631" sodipodi:type="arc" sodipodi:cx="102.02917" sodipodi:cy="547.12561" sodipodi:rx="5.017828" sodipodi:ry="5.017828" fill="none" stroke="#FF5274" stroke-width="0.8384" stroke-dasharray="5.0304,0.8384" d="
			M62.555,541.439c0,2.771-2.247,5.018-5.017,5.018c-2.771,0-5.018-2.247-5.018-5.018c0-2.771,2.247-5.018,5.018-5.018
			C60.308,536.421,62.555,538.668,62.555,541.439z"/>
		
			<text transform="matrix(0.8384 0 0 0.8384 70.9756 546.5965)" fill="#FFFFFF" font-family="'MyriadPro-Regular'" font-size="15.5059">Domino Logic Gates  </text>
		
			<text transform="matrix(0.8384 0 0 0.8384 207.4756 546.5965)" fill="#FFFFFF" font-family="'MyriadPro-Regular'" font-size="15.5059">7C &amp; 7D</text>
	</g>
	<g id="g3182" transform="matrix(1.1927584,0,0,1.1927584,55.550613,-437.16562)">
		
			<path id="path3145" sodipodi:type="arc" sodipodi:cx="102.02917" sodipodi:cy="547.12561" sodipodi:rx="5.017828" sodipodi:ry="5.017828" fill="none" stroke="#FF5274" stroke-width="0.8384" stroke-dasharray="5.0304,0.8384" d="
			M62.555,563.44c0,2.771-2.247,5.018-5.017,5.018c-2.771,0-5.018-2.247-5.018-5.018c0-2.771,2.247-5.018,5.018-5.018
			C60.308,558.421,62.555,560.668,62.555,563.44z"/>
		
			<text transform="matrix(0.8384 0 0 0.8384 70.0938 567.8005)" fill="#FFFFFF" font-family="'MyriadPro-Regular'" font-size="15.5059">Table Top Games </text>
		
			<text transform="matrix(0.8384 0 0 0.8384 184.4935 567.8005)" fill="#FF5274" font-family="'MyriadPro-Regular'" font-size="15.5059">by class 6</text>
		
			<text transform="matrix(0.8384 0 0 0.8384 245.5938 567.8005)" fill="#FFFFFF" font-family="'MyriadPro-Regular'" font-size="15.5059">  - </text>
		
			<text transform="matrix(0.8384 0 0 0.8384 261.1934 567.8005)" fill="#FFFFFF" font-family="'MyriadPro-Regular'" font-size="15.5059">7A &amp; 7B</text>
	</g>
	<g id="g3202" transform="matrix(1.1927584,0,0,1.1927584,55.550613,-317.63155)">
		
			<path id="path3156" sodipodi:type="arc" sodipodi:cx="102.02917" sodipodi:cy="547.12561" sodipodi:rx="5.017828" sodipodi:ry="5.017828" fill="none" stroke="#FF5274" stroke-width="0.8384" stroke-dasharray="5.0304,0.8384" d="
			M62.555,615.439c0,2.771-2.247,5.018-5.017,5.018c-2.771,0-5.018-2.247-5.018-5.018c0-2.771,2.247-5.018,5.018-5.018
			C60.308,610.421,62.555,612.668,62.555,615.439z"/>
		
			<text transform="matrix(0.8384 0 0 0.8384 70.0938 619.8007)" fill="#FFFFFF" font-family="'MyriadPro-Regular'" font-size="15.5059">Student ICT Curriculum Display  </text>
		
			<text transform="matrix(0.8384 0 0 0.8384 271.5938 619.8007)" fill="#FFFFFF" font-family="'MyriadPro-Regular'" font-size="15.5059">Computer Labs</text>
	</g>
	<g id="g3213" transform="matrix(1.1927584,0,0,1.1927584,55.550613,-350.98501)">
		
			<path id="path3221" sodipodi:type="arc" sodipodi:cx="102.02917" sodipodi:cy="547.12561" sodipodi:rx="5.017828" sodipodi:ry="5.017828" fill="none" stroke="#FF5274" stroke-width="0.8384" stroke-dasharray="5.0304,0.8384" d="
			M62.555,541.44c0,2.771-2.247,5.018-5.017,5.018c-2.771,0-5.018-2.247-5.018-5.018c0-2.771,2.247-5.018,5.018-5.018
			C60.308,536.422,62.555,538.668,62.555,541.44z"/>
		
			<text transform="matrix(0.8384 0 0 0.8384 70.9756 546.5969)" fill="#FFFFFF" font-family="'MyriadPro-Regular'" font-size="15.5059">Technology Seminars </text>
		
			<text transform="matrix(0.8384 0 0 0.8384 207.4756 546.5969)" fill="#FF5274" font-family="'MyriadPro-Regular'" font-size="15.5059">by class 7</text>
		
			<text transform="matrix(0.8384 0 0 0.8384 268.576 546.5969)" fill="#FFFFFF" font-family="'MyriadPro-Regular'" font-size="15.5059"> - </text>
		
			<text transform="matrix(0.8384 0 0 0.8384 280.2758 546.5969)" fill="#FFFFFF" font-family="'MyriadPro-Regular'" font-size="15.5059">AV Room (4-7) </text>
	</g>
	<text transform="matrix(1 0 0 1 115.7883 126.5607)" fill="#FF5274" font-family="'MyriadPro-Regular'" font-size="20.5082">Events @</text>
	<text transform="matrix(1 0 0 1 212.177 126.5607)" fill="#FFFFFF" font-family="'MyriadPro-Regular'" font-size="20.5082"> Junior Block</text>
	
		<image overflow="visible" enable-background="new    " width="3101" height="594" id="image3183" xlink:href="9C22A3D4.png"  transform="matrix(0.0694 0 0 0.0694 364.8811 19.5895)">
	</image>
	
		<text transform="matrix(1 0 0 1 41.2463 47.087)" fill="#FFFFFF" filter="url(#filter4343)" font-family="'MyriadPro-Regular'" font-size="14.9832">November 21</text>
	<text transform="matrix(1 0 0 1 137.1389 40.8702)" fill="#FFFFFF" font-family="'MyriadPro-Regular'" font-size="9.7392">st</text>
	<g id="g3822" transform="matrix(1.1927584,0,0,1.1927584,55.550613,-497.76557)">
		
			<path id="path3824" sodipodi:type="arc" sodipodi:cx="102.02917" sodipodi:cy="547.12561" sodipodi:rx="5.017828" sodipodi:ry="5.017828" fill="none" stroke="#FF5274" stroke-width="0.8384" stroke-dasharray="5.0304,0.8384" d="
			M62.555,563.44c0,2.771-2.247,5.018-5.017,5.018c-2.771,0-5.018-2.247-5.018-5.018c0-2.771,2.247-5.018,5.018-5.018
			C60.308,558.421,62.555,560.668,62.555,563.44z"/>
		
			<text transform="matrix(0.8384 0 0 0.8384 70.0938 567.8001)" fill="#FFFFFF" font-family="'MyriadPro-Regular'" font-size="15.5059">Chart Chatting </text>
		
			<text transform="matrix(0.8384 0 0 0.8384 161.0938 567.8001)" fill="#FF5274" font-family="'MyriadPro-Regular'" font-size="15.5059">by class 5</text>
		
			<text transform="matrix(0.8384 0 0 0.8384 222.1933 567.8001)" fill="#FFFFFF" font-family="'MyriadPro-Regular'" font-size="15.5059">  - </text>
		
			<text transform="matrix(0.8384 0 0 0.8384 237.7937 567.8001)" fill="#FFFFFF" font-family="'MyriadPro-Regular'" font-size="15.5059">6F</text>
	</g>
	<text transform="matrix(1 0 0 1 115.7883 518.5607)" fill="#FF5274" font-family="'MyriadPro-Regular'" font-size="20.5082">Note : </text>
	<g id="g3039" transform="matrix(1.1927584,0,0,1.1927584,55.550613,-98.44563)">
		
			<text transform="matrix(0.8384 0 0 0.8384 50.8541 546.5967)" fill="#FFFFFF" font-family="'MyriadPro-Regular'" font-size="15.5059"> 1) All events start at </text>
		
			<text transform="matrix(0.8384 0 0 0.8384 179.5548 546.5967)" fill="#FF5274" font-family="'MyriadPro-Regular'" font-size="15.5059">9.00 AM</text>
		
			<text transform="matrix(0.8384 0 0 0.8384 231.5549 546.5967)" fill="#FFFFFF" font-family="'MyriadPro-Regular'" font-size="15.5059"> and end at </text>
		
			<text transform="matrix(0.8384 0 0 0.8384 305.6544 546.5967)" fill="#FF5274" font-family="'MyriadPro-Regular'" font-size="15.5059">12.00 PM</text>
		
			<text transform="matrix(0.8384 0 0 0.8384 365.4546 546.5967)" fill="#FFFFFF" font-family="'MyriadPro-Regular'" font-size="15.5059">. </text>
	</g>
	<g id="g3826" transform="matrix(1.1927584,0,0,1.1927584,55.550613,-70.44563)">
		
			<text transform="matrix(0.8384 0 0 0.8384 50.8541 546.5967)" fill="#FFFFFF" font-family="'MyriadPro-Regular'" font-size="15.5059"> 2) The time schedule of the selected students will be published in Pupilpod. </text>
	</g>
	<g id="g3843" transform="matrix(1.1927584,0,0,1.1927584,55.550613,-44.44563)">
		
			<text transform="matrix(0.8384 0 0 0.8384 50.8541 546.5968)" fill="#FFFFFF" font-family="'MyriadPro-Regular'" font-size="15.5059"> 3) Wednesday Uniform (white shirt). </text>
	</g>
</g>
</svg>
